<svg id="Layer_1" data-name="Layer 1" xmlns="http://www.w3.org/2000/svg" viewBox="0 0 1109.31 227.5"><title>help</title><path d="M1035.66,238.5h-947a38.36,38.36,0,0,1-38.36-38.36V172.85a1.13,1.13,0,0,1,.91-1.11c4.68-1,6.27-1.58,12.12-3.58,11.09-3.82,21.1-12,25.65-22.93,8.19-19.12,3.64-40-13.65-52.79-14.55-10-33.63-10-47.28.88l-.08.07c-9.07,8.18-15.41,20-14.53,32.67,0,0,0,.07,0,.11,1.83,13.63,10,25.43,22.74,30.89,10.92,4.54,22.75,2.72,32.76-4.55,13.64-10.91,16.37-30,6.4-43.64l-.06-.09c-8.2-10-21.83-15.42-33.64-10C28,105.19,20.7,120.65,28,135.22c7.28,13.64,27.3,16.38,37.31,4.55,5.44-6.35,5.46-15.4,1.86-22.66a1.62,1.62,0,0,0-.1-.18c-5.47-8.11-17.21-11.71-25.37-4.51l-.1.09c-4.49,4.52-6.29,10.82-3.64,17.14a1.28,1.28,0,0,0,.11.2c2.76,4.49,9.08,7.17,14.5,4.46,3.6-1.8,6.31-5.38,4.61-9a1.09,1.09,0,0,0-.14-.23c-1.63-2.32-5.25-3.26-7.33-1.64a1.13,1.13,0,0,0,0,1.81c.22.16.46.31.69.47a1.13,1.13,0,0,1-.25,2c-4.7,1.41-8.19-5.57-5.85-9.71l.15-.22c3.64-4.41,9.89-3.52,14.4-.85l.15.1c3.59,2.72,5.38,6.35,4.48,10.86a15.21,15.21,0,0,1-18.2,13.66c-12.74-2.74-18.2-17.29-11.83-28.21,8.19-12.74,26.39-13.65,36.4-2.73,10,11.83,7.28,29.12-5.46,38.21-11.83,8.2-27.3,5.46-37.31-4.54-9.1-10-10-25.48-2.73-37.31C36.17,87,63.47,86.07,78,102.45c13.65,15.48,11.83,40-4.55,53.7-12.74,10-30,10.92-44.59,3.63C17.06,153.41,9.78,141.59,8,128.85,4.37,103.74,24.64,80.4,49.18,79.4a1.13,1.13,0,0,0,1.09-1.13V49.36A38.36,38.36,0,0,1,88.63,11h947A38.35,38.35,0,0,1,1074,49.36V75a1.12,1.12,0,0,1-.73,1.06,24.87,24.87,0,0,0-4.24,2.14,1.32,1.32,0,0,1-.31.12c-14.38,3.27-27,11.45-33.39,25-9.1,20-1.82,47.32,20,56.42,12.74,5.46,27.3,5.46,39.13-2.72,15.47-10.92,20.93-30,13.65-46.41-4.55-9.1-10.92-15.47-20-19.12-22.75-9.09-50.05,10.92-45.5,35.49,2.73,14.57,16.38,26.39,31.85,25.49,13.65-.91,24.57-12.74,25.48-26.4.91-10-6.37-19.1-14.56-23.66-10.92-5.46-23.66-.9-29.12,10s-.94,24.48,10.81,28.17l.22.05c6.34.88,12.66,0,17.18-4.57a14.43,14.43,0,0,0-5.35-23.61l-.23-.07c-4.46-.86-8.91,0-11.63,3.56a1.76,1.76,0,0,0-.14.23c-1.76,3.56-2.62,7.12,0,10.68a1.9,1.9,0,0,0,.19.21c2.76,2.59,8.09.77,8.09-2.82a1.34,1.34,0,0,0-1.34-1.51,1.12,1.12,0,0,1-.68-2l0,0a1,1,0,0,1,.39-.25,6.73,6.73,0,0,1,8.88,6.29,1.24,1.24,0,0,1,0,.33,10.68,10.68,0,0,1-10,8c-8.19,0-14.56-8.2-12.74-16.38q1.35-6.8,8.12-10.89l.14-.07c9.09-4.49,20.87.06,24.5,10.05,3.64,11.83-2.73,25.47-15.47,28.21-10,1.81-20-1.82-25.48-10.92-9.1-14.57-.91-31.86,12.74-38.23,8.19-3.64,18.2-3.64,26.39,1.83,13.63,9.08,19.09,25.42,11.86,40a.83.83,0,0,1-.07.13c-4.54,7.24-10.88,13.57-19,17.2l-.12,0c-24.55,9-50-14.6-46.35-40.07,1.82-13.65,11.83-24.57,24.57-30,19.11-7.27,41.86,2.74,51,20.94,13.5,27.9-7.72,59.36-37.67,63a1.13,1.13,0,0,0-1,1.12v29A38.35,38.35,0,0,1,1035.66,238.5ZM398,89.86Q398.09,79,405.2,79a25.09,25.09,0,0,1,3.19.36,26.15,26.15,0,0,0,3.91.36,4.26,4.26,0,0,0,3.19-1.35A4.68,4.68,0,0,0,416.8,75q0-5.15-6.38-5.15a69,69,0,0,0-8.92.87,69.25,69.25,0,0,1-9.06.87,75.68,75.68,0,0,1-13.49-1,39.89,39.89,0,0,0-5.37-.73c-4.44,0-6.66,1.7-6.66,5.08a4.66,4.66,0,0,0,1.37,3.33,4.35,4.35,0,0,0,3.27,1.45,19.58,19.58,0,0,0,3.77-.43,18.36,18.36,0,0,1,3.19-.44q7.39,0,7.39,10.88v58.14q0,10.88-7.39,10.88a13.83,13.83,0,0,1-3-.36,31.84,31.84,0,0,0-3.91-.37,4.41,4.41,0,0,0-3.27,1.43,4.59,4.59,0,0,0-1.37,3.29q0,5.15,6.66,5.14c.1,0,.73-.09,1.89-.29L379,167A80,80,0,0,1,392,165.84,75.7,75.7,0,0,1,404.18,167a62.37,62.37,0,0,0,6.24.87q6.38,0,6.38-5.22,0-4.64-4.5-4.64a26.8,26.8,0,0,0-3.55.37,26.53,26.53,0,0,1-3.55.36q-6.09,0-7.25-8-.15-1-.15-13V121.18h46.4v16.39q0,12-.14,13.05-1.17,8-7.25,8a29,29,0,0,1-3.48-.29,31.71,31.71,0,0,0-3.48-.29c-3.1,0-4.64,1.58-4.64,4.72q0,5.15,6.37,5.14.59,0,7-1A88.21,88.21,0,0,1,452,166a56.75,56.75,0,0,1,11,1,38,38,0,0,0,5.66.87q6.38,0,6.37-5.22c0-3.09-1.49-4.64-4.49-4.64a26.8,26.8,0,0,0-3.55.37,26.53,26.53,0,0,1-3.55.36q-7.26,0-7.25-10.88V90q0-10.87,7.39-10.88a31.71,31.71,0,0,1,3.48.29,29.36,29.36,0,0,0,3.48.29c3,0,4.49-1.57,4.49-4.71q0-5.15-6.37-5.15a43.91,43.91,0,0,0-5.51.69,88.75,88.75,0,0,1-14.5,1.2,57.24,57.24,0,0,1-9.87-.94,51.35,51.35,0,0,0-7.39-1c-4.16,0-6.23,1.72-6.23,5.15,0,3.14,1.54,4.71,4.64,4.71a29.52,29.52,0,0,0,3.84-.29,29.91,29.91,0,0,1,3.12-.29q7.4,0,7.39,10.88v21.31H397.8Zm101.64,58q0,10.88-7.4,10.88a11.57,11.57,0,0,1-3-.44c-2.13-.19-3.43-.29-3.92-.29q-4.49,0-4.49,4.64,0,5.22,6.09,5.22h.87a7.22,7.22,0,0,1,1.3-.14q13-.87,26.68-.87,9,0,21.32.29t11.31.29q4.63,0,6.38.14c2.32.2,4,.29,5.07.29q6.68,0,6.67-6.81,0-2-.21-6c-.15-2.66-.22-4.66-.22-6,0-1.74.07-4.39.22-8s.21-6.24.21-8q0-6.66-5.43-6.67c-3.44,0-5.15,2.18-5.15,6.53q0,2.17.22,6.45t.21,6.45q0,7-3.19,9.5t-11.74,2.54H521.63q-6,0-7.54-1c-1.45-1-2.23-3.38-2.32-7.25q0-1.59-.15-6.38c-.09-2.61-.14-4.68-.14-6.23v-9q0-4.78.94-6.24c.63-1,2.34-1.45,5.15-1.45h6.52q8.26,0,8.27,6.24a42.88,42.88,0,0,1-.36,4.64,40.94,40.94,0,0,0-.37,4.64q0,6.09,5.08,6.09t5.22-5.22a39.87,39.87,0,0,0-.44-5.08c-.38-2.61-.63-4.3-.72-5.07q-.59-7.39-.58-10.3a100.8,100.8,0,0,1,.8-11.74q.94-7.83.94-9,0-6.24-5.15-6.24c-3.43,0-5.15,1.94-5.15,5.8A36.8,36.8,0,0,0,532,100a36.26,36.26,0,0,1,.36,4.5q0,6.24-9,6.23h-5.87a13.62,13.62,0,0,1-3.43-.29q-2.56-.87-2.57-6.67V89.28q0-7.09,6.23-8.7,1.89-.43,12.18-.43,15.66,0,19.43,1.59,5.08,2.17,5.08,14.36v7.54q0,7.68,5.15,7.68c3.43,0,5.14-1.83,5.14-5.51a60.76,60.76,0,0,0-.48-6.23,70.41,70.41,0,0,1-.24-7.11q0-3.91.31-8.55c.28-4.16.41-6.62.41-7.4q0-6.66-7.51-6.67c-1.25,0-2.65.05-4.19.15-4.34.29-6.84.43-7.52.43l-34.82,1h-1.44q1.44,0-20.24-1.45l-2.16-.15c-4.05,0-6.07,1.7-6.07,5.08a4.77,4.77,0,0,0,1.3,3.41,4.22,4.22,0,0,0,3.19,1.37,21.81,21.81,0,0,0,3.92-.43,12,12,0,0,1,3-.29q7.4,0,7.4,10.73Zm109.76-58.2q0-10.68,7.4-10.67a12,12,0,0,1,3,.29,23.81,23.81,0,0,0,3.92.43,4.22,4.22,0,0,0,3.19-1.37,4.77,4.77,0,0,0,1.3-3.41c0-3.38-2.17-5.08-6.52-5.08a15.27,15.27,0,0,0-1.89.15l-6.67.87a73.52,73.52,0,0,1-9.28.72,93.15,93.15,0,0,1-9.42-.72L586.73,70a19.58,19.58,0,0,0-2.17-.15c-4.16,0-6.24,1.7-6.24,5.08a4.78,4.78,0,0,0,1.31,3.41,4.21,4.21,0,0,0,3.19,1.37,21.71,21.71,0,0,0,3.91-.43,12.07,12.07,0,0,1,3-.29q7.4,0,7.39,10.73v58.14q0,10.88-7.39,10.88a20.75,20.75,0,0,1-3.48-.44,20.73,20.73,0,0,0-3.48-.43q-4.5,0-4.5,4.64,0,5.22,6.09,5.22c1.06,0,2.54-.07,4.42-.22s3.22-.22,4-.22q8.11-.57,11.6-.58H638.5q7.25.25,10.73.51,5.22.51,6.67.51,7.4,0,7.39-6.53,0-2-.36-6t-.36-6a49.41,49.41,0,0,1,.43-6.67l1-7.4a21.65,21.65,0,0,0,.14-2.75q0-5.81-6.09-5.8-5.07,0-5.07,6.29c0,.76.09,3,.29,6.72.09,1.91.14,3.58.14,5q0,8-3.33,10.65t-13.34,2.65H624a93.42,93.42,0,0,1-9.5-.29,5.77,5.77,0,0,1-3.41-1.59c-1.16-1.05-1.74-4.42-1.74-10.09ZM682,158.74a12.07,12.07,0,0,1-3-.29A21.94,21.94,0,0,0,675,158a4.22,4.22,0,0,0-3.19,1.38,4.78,4.78,0,0,0-1.31,3.41q0,5.07,6.53,5.07h1a4.4,4.4,0,0,1,.87-.14l8.41-1.16a63.38,63.38,0,0,1,8.27-.44,70,70,0,0,1,9.13.44l7.25,1,2,.29q6.38,0,6.38-5.22,0-4.64-4.49-4.64c-.49,0-1.79.1-3.92.29a10.54,10.54,0,0,1-3,.44c-3.48,0-5.59-1.3-6.31-3.9s-1.09-10-1.09-22.23v-2.89c0-1.93.22-3.15.65-3.68s1.43-.8,3-.8h16.24q17.68,0,27-7.25t9.35-20.88a26.52,26.52,0,0,0-5.43-16.82,24.84,24.84,0,0,0-15-9,76.3,76.3,0,0,0-15.92-1.45q-6.09,0-18,1-5.07.43-8.69.43a71.79,71.79,0,0,1-8.68-.43l-7.1-.87a17,17,0,0,0-2.17-.15c-4.25,0-6.37,1.7-6.37,5.08,0,3.19,1.54,4.78,4.6,4.78a33.64,33.64,0,0,0,3.89-.35,26.82,26.82,0,0,1,3-.23q7.34,0,7.34,10.71v58Q689.39,158.74,682,158.74Zm40-79.61q23.49,0,23.49,18.42,0,13.92-12.91,17a76.35,76.35,0,0,1-17.11,1.6h-8.41q-5.51-.58-5.51-4.5V90.15c0-4.35.34-7,1-8Q704.62,79.14,722,79.13Z" transform="translate(-7.55 -11)" style="fill:#0071bc"/></svg>