<svg id="Layer_1" data-name="Layer 1" xmlns="http://www.w3.org/2000/svg" viewBox="0 0 1109.31 227.5"><title>play</title><path d="M1035.66,238.5h-947a38.36,38.36,0,0,1-38.36-38.36V172.85a1.13,1.13,0,0,1,.91-1.11c4.68-1,6.27-1.58,12.12-3.58,11.09-3.82,21.1-12,25.65-22.93,8.19-19.12,3.64-40-13.65-52.79-14.55-10-33.63-10-47.28.88l-.08.07c-9.07,8.18-15.41,20-14.53,32.67,0,0,0,.07,0,.11,1.83,13.63,10,25.43,22.74,30.89,10.92,4.54,22.75,2.72,32.76-4.55,13.64-10.91,16.37-30,6.4-43.64l-.06-.09c-8.2-10-21.83-15.42-33.64-10C28,105.19,20.7,120.65,28,135.22c7.28,13.64,27.3,16.38,37.31,4.55,5.44-6.35,5.46-15.4,1.86-22.66a1.62,1.62,0,0,0-.1-.18c-5.47-8.11-17.21-11.71-25.37-4.51l-.1.09c-4.49,4.52-6.29,10.82-3.64,17.14a1.28,1.28,0,0,0,.11.2c2.76,4.49,9.08,7.17,14.5,4.46,3.6-1.8,6.31-5.38,4.61-9a1.09,1.09,0,0,0-.14-.23c-1.63-2.32-5.25-3.26-7.33-1.64a1.13,1.13,0,0,0,0,1.81c.22.16.46.31.69.47a1.13,1.13,0,0,1-.25,2c-4.7,1.41-8.19-5.57-5.85-9.71l.15-.22c3.64-4.41,9.89-3.52,14.4-.85l.15.1c3.59,2.72,5.38,6.35,4.48,10.86a15.21,15.21,0,0,1-18.2,13.66c-12.74-2.74-18.2-17.29-11.83-28.21,8.19-12.74,26.39-13.65,36.4-2.73,10,11.83,7.28,29.12-5.46,38.21-11.83,8.2-27.3,5.46-37.31-4.54-9.1-10-10-25.48-2.73-37.31C36.17,87,63.47,86.07,78,102.45c13.65,15.48,11.83,40-4.55,53.7-12.74,10-30,10.92-44.59,3.63C17.06,153.41,9.78,141.59,8,128.85,4.37,103.74,24.64,80.4,49.18,79.4a1.13,1.13,0,0,0,1.09-1.13V49.36A38.36,38.36,0,0,1,88.63,11h947A38.35,38.35,0,0,1,1074,49.36V75a1.12,1.12,0,0,1-.73,1.06,24.87,24.87,0,0,0-4.24,2.14,1.32,1.32,0,0,1-.31.12c-14.38,3.27-27,11.45-33.39,25-9.1,20-1.82,47.32,20,56.42,12.74,5.46,27.3,5.46,39.13-2.72,15.47-10.92,20.93-30,13.65-46.41-4.55-9.1-10.92-15.47-20-19.12-22.75-9.09-50.05,10.92-45.5,35.49,2.73,14.57,16.38,26.39,31.85,25.49,13.65-.91,24.57-12.74,25.48-26.4.91-10-6.37-19.1-14.56-23.66-10.92-5.46-23.66-.9-29.12,10s-.94,24.48,10.81,28.17l.22.05c6.34.88,12.66,0,17.18-4.57a14.43,14.43,0,0,0-5.35-23.61l-.23-.07c-4.46-.86-8.91,0-11.63,3.56a1.76,1.76,0,0,0-.14.23c-1.76,3.56-2.62,7.12,0,10.68a1.9,1.9,0,0,0,.19.21c2.76,2.59,8.09.77,8.09-2.82a1.34,1.34,0,0,0-1.34-1.51,1.12,1.12,0,0,1-.68-2l0,0a1,1,0,0,1,.39-.25,6.73,6.73,0,0,1,8.88,6.29,1.24,1.24,0,0,1,0,.33,10.68,10.68,0,0,1-10,8c-8.19,0-14.56-8.2-12.74-16.38q1.35-6.8,8.12-10.89l.14-.07c9.09-4.49,20.87.06,24.5,10.05,3.64,11.83-2.73,25.47-15.47,28.21-10,1.81-20-1.82-25.48-10.92-9.1-14.57-.91-31.86,12.74-38.23,8.19-3.64,18.2-3.64,26.39,1.83,13.63,9.08,19.09,25.42,11.86,40a.83.83,0,0,1-.07.13c-4.54,7.24-10.88,13.57-19,17.2l-.12,0c-24.55,9-50-14.6-46.35-40.07,1.82-13.65,11.83-24.57,24.57-30,19.11-7.27,41.86,2.74,51,20.94,13.5,27.9-7.72,59.36-37.67,63a1.13,1.13,0,0,0-1,1.12v29A38.35,38.35,0,0,1,1035.66,238.5ZM379.31,158.74a12,12,0,0,1-3-.29,21.94,21.94,0,0,0-3.92-.44,4.23,4.23,0,0,0-3.19,1.38,4.77,4.77,0,0,0-1.3,3.41q0,5.07,6.52,5.07h1a4.19,4.19,0,0,1,.87-.14l8.41-1.16a63.21,63.21,0,0,1,8.26-.44,70.18,70.18,0,0,1,9.14.44l7.25,1,2,.29q6.38,0,6.38-5.22,0-4.64-4.5-4.64c-.48,0-1.79.1-3.91.29a10.56,10.56,0,0,1-3.05.44q-5.22,0-6.3-3.9t-1.09-22.23v-2.89c0-1.93.22-3.15.65-3.68s1.43-.8,3-.8h16.24q17.7,0,27.05-7.25t9.35-20.88a26.52,26.52,0,0,0-5.43-16.82,24.84,24.84,0,0,0-15-9,76.33,76.33,0,0,0-15.93-1.45q-6.07,0-17.95,1c-3.37.29-6.27.43-8.68.43a72.08,72.08,0,0,1-8.69-.43L376.4,70a17,17,0,0,0-2.17-.15c-4.25,0-6.37,1.7-6.37,5.08q0,4.78,4.6,4.78a33.82,33.82,0,0,0,3.89-.35,26.49,26.49,0,0,1,3-.23q7.33,0,7.34,10.71v58Q386.71,158.74,379.31,158.74Zm40-79.61q23.49,0,23.49,18.42,0,13.92-12.9,17a76.41,76.41,0,0,1-17.11,1.6H404.4c-3.68-.39-5.51-1.89-5.51-4.5V90.15c0-4.35.34-7,1-8Q401.94,79.14,419.33,79.13ZM491.4,89.66Q491.4,79,498.79,79a12.07,12.07,0,0,1,3,.29,23.6,23.6,0,0,0,3.91.43,4.21,4.21,0,0,0,3.19-1.37,4.78,4.78,0,0,0,1.31-3.41c0-3.38-2.18-5.08-6.53-5.08a15.27,15.27,0,0,0-1.88.15l-6.67.87a73.79,73.79,0,0,1-9.28.72,93.3,93.3,0,0,1-9.43-.72L468.78,70a19.74,19.74,0,0,0-2.18-.15c-4.16,0-6.23,1.7-6.23,5.08a4.77,4.77,0,0,0,1.3,3.41,4.21,4.21,0,0,0,3.19,1.37,21.9,21.9,0,0,0,3.92-.43,12,12,0,0,1,3-.29q7.4,0,7.4,10.73v58.14q0,10.88-7.4,10.88a21,21,0,0,1-3.48-.44,20.73,20.73,0,0,0-3.48-.43c-3,0-4.49,1.55-4.49,4.64q0,5.22,6.09,5.22c1.06,0,2.53-.07,4.42-.22s3.21-.22,4-.22q8.11-.57,11.6-.58h34.07c4.84.17,8.41.34,10.73.51,3.48.34,5.71.51,6.67.51q7.39,0,7.4-6.53c0-1.35-.13-3.35-.37-6s-.36-4.67-.36-6a49.38,49.38,0,0,1,.44-6.67l1-7.4a19.66,19.66,0,0,0,.15-2.75q0-5.81-6.09-5.8-5.08,0-5.08,6.29,0,1.14.29,6.72.15,2.87.15,5,0,8-3.34,10.65t-13.34,2.65H506a93.42,93.42,0,0,1-9.5-.29,5.74,5.74,0,0,1-3.4-1.59c-1.16-1.05-1.74-4.42-1.74-10.09Zm139.19,64.87q0,3.91-4.78,3.92a37.72,37.72,0,0,1-3.84-.29,38.07,38.07,0,0,0-3.85-.29q-6.37,0-6.38,4.93c0,3.29,1.94,4.93,5.8,4.93,1.07,0,2.61-.1,4.64-.29q12-1.16,17.4-1.16a120.59,120.59,0,0,1,13.63,1.13,37.1,37.1,0,0,0,4.21.32q5.51,0,5.51-5.08,0-4.78-5.51-4.78l-4.06.39a6.24,6.24,0,0,1-1.74.19,7.53,7.53,0,0,1-5.8-2.18c-1.36-1.45-2.85-4.44-4.5-9l-26-71.92q-2.18-6.09-8.85-6.09t-9.13,6.11l-27,73.18c-1.36,3.78-2.32,6.06-2.9,6.83a6.7,6.7,0,0,1-5.95,3.06h-1.88a2.36,2.36,0,0,0-1.74-.58c-3.68,0-5.51,1.69-5.51,5.07q0,4.78,5.65,4.79a56.73,56.73,0,0,0,5.95-.48l6.09-.73a70.31,70.31,0,0,1,7.1-.24,57.64,57.64,0,0,1,6.67.26l7.25.9a24.71,24.71,0,0,0,3.19.29q6.52,0,6.53-4.79,0-5.07-6-5.07c-.87,0-2.2.1-4,.29s-3.17.29-4.14.29c-3.76,0-5.65-1.55-5.65-4.64a8.87,8.87,0,0,1,.58-3.05l4.2-11.16c1.16-3,2.11-4.83,2.83-5.51s2-1,4-1h25.81a8.44,8.44,0,0,1,3.84.58,5.85,5.85,0,0,1,1.81,2.9l5.22,14.21A19.58,19.58,0,0,1,630.59,154.53Zm-11.31-32.19c0,.78-.57,1.16-1.74,1.16h-23c-1.45,0-2.18-.43-2.18-1.3a6.33,6.33,0,0,1,.29-1l13.34-40,13,40A4.47,4.47,0,0,1,619.28,122.34ZM700.77,151q-1.31,7.71-7.39,7.71a23.43,23.43,0,0,1-3.41-.36,23.76,23.76,0,0,0-3.41-.37q-4.63,0-4.64,4.79,0,5.07,6.53,5.07h1a4.4,4.4,0,0,1,.87-.14l7.4-1a65.74,65.74,0,0,1,8.84-.58,70.42,70.42,0,0,1,8.85.58l8,1a4.66,4.66,0,0,1,1,.14h.87q6.53,0,6.52-5.22,0-4.64-4.49-4.64a26.64,26.64,0,0,0-3.55.37,26.49,26.49,0,0,1-3.56.36c-3.28,0-5.34-1.21-6.16-3.63s-1.23-8.55-1.23-18.41v-6.09L741.37,85.8l2.18-3.33A7,7,0,0,1,749.64,79a32,32,0,0,1,3.19.29,14.72,14.72,0,0,0,3.33.29q5.37,0,5.37-4.64c0-3.38-1.84-5.08-5.51-5.08a34.05,34.05,0,0,0-4.93.44,91.71,91.71,0,0,1-13.78,1.16,101.82,101.82,0,0,1-14.06-1.16,37.84,37.84,0,0,0-5.22-.44q-5.81,0-5.8,5.15t5.94,5.15c.87,0,2.13-.08,3.77-.23l3.77-.35,2.61-.44h.29c1.26,0,1.89.44,1.89,1.31a4.3,4.3,0,0,1-.73,2.32l-22.47,37.7-22.19-37.7c-.38-.68-.63-1.09-.72-1.23a1.52,1.52,0,0,1-.15-.8c0-.87.58-1.26,1.74-1.16h8q7.1,0,7.1-4.79c0-3.28-2-4.93-5.94-4.93a37.84,37.84,0,0,0-5.22.44,102.94,102.94,0,0,1-13.49,1.3,78.88,78.88,0,0,1-13-1.16,37.22,37.22,0,0,0-5.8-.58c-3.86,0-5.8,1.74-5.8,5.22s2.23,5.08,6.67,5.08h2.76a4.72,4.72,0,0,1,2.61-.58,7.29,7.29,0,0,1,5.36,2.18,44,44,0,0,1,3.48,5.1l28.13,44.67q0,1.6.15,3.93v2.77Q700.92,149.71,700.77,151Z" transform="translate(-7.55 -11)" style="fill:#c1272d"/></svg>