<svg id="Layer_1" data-name="Layer 1" xmlns="http://www.w3.org/2000/svg" viewBox="0 0 512 512"><defs><style>.cls-1,.cls-2{fill:#e6e7e8;}.cls-2{stroke:#000;stroke-miterlimit:10;stroke-width:2px;}.cls-3{fill:#8cc63f;}</style></defs><title>Artboard 1</title><rect class="cls-1" x="-0.5" y="-0.5" width="512" height="512" rx="66.85"/><rect class="cls-2" x="71" y="86" width="370" height="359" rx="38.88"/><path class="cls-3" d="M223.63,303.5V227.05q0-14.1-9.67-14.11a32.65,32.65,0,0,0-4,.31,48.4,48.4,0,0,1-5.12.46q-6.06,0-6.06-6.31,0-6.68,8.39-6.68a22.73,22.73,0,0,1,2.86.19l9.34,1.14a92.84,92.84,0,0,0,11.44.58q4.77,0,11.44-.58,15.63-1.32,23.65-1.33a100.12,100.12,0,0,1,21,1.91q12.58,2.67,19.74,11.84t7.15,22.16q0,18-12.32,27.5t-35.62,9.55h-21.4c-2,0-3.34.35-3.91,1.05s-.86,2.31-.86,4.84v3.81q0,24.15,1.43,29.29t8.31,5.13a13.93,13.93,0,0,0,4-.57c2.8-.26,4.52-.38,5.16-.38q5.91,0,5.92,6.11,0,6.87-8.4,6.87l-2.68-.38-9.55-1.34a93,93,0,0,0-12-.57,84,84,0,0,0-10.89.57l-11.08,1.53a5.71,5.71,0,0,0-1.14.19h-1.34q-8.59,0-8.59-6.68a6.27,6.27,0,0,1,1.72-4.49,5.54,5.54,0,0,1,4.2-1.81,28.81,28.81,0,0,1,5.15.57,15.44,15.44,0,0,0,4,.38Q223.63,317.8,223.63,303.5ZM241,217c-.9,1.28-1.34,4.78-1.34,10.51v28.27q0,5.15,7.26,5.92H258a101.08,101.08,0,0,0,22.53-2.1q17-4,17-22.35,0-24.25-30.94-24.26Q243.68,212.94,241,217Z"/></svg>