<svg id="Layer_1" data-name="Layer 1" xmlns="http://www.w3.org/2000/svg" viewBox="0 0 1353 191"><title>homePaheli</title><rect x="1.5" y="1.5" width="185" height="185" rx="38.94" style="fill:#fff;stroke:#000;stroke-miterlimit:10;stroke-width:3px"/><rect x="234.5" y="1.5" width="185" height="185" rx="38.94" style="fill:#fff;stroke:#000;stroke-miterlimit:10;stroke-width:3px"/><rect x="467.5" y="1.5" width="185" height="185" rx="38.94" style="fill:#fff;stroke:#000;stroke-miterlimit:10;stroke-width:3px"/><rect x="700.5" y="4.5" width="185" height="185" rx="38.94" style="fill:#fff;stroke:#000;stroke-miterlimit:10;stroke-width:3px"/><rect x="933.5" y="4.5" width="185" height="185" rx="38.94" style="fill:#fff;stroke:#000;stroke-miterlimit:10;stroke-width:3px"/><rect x="1166.5" y="4.5" width="185" height="185" rx="38.94" style="fill:#fff;stroke:#000;stroke-miterlimit:10;stroke-width:3px"/><path d="M156.73,150.81V106.38q0-8.2-5.62-8.2a21.19,21.19,0,0,0-2.31.17,26.93,26.93,0,0,1-3,.27q-3.52,0-3.52-3.66,0-3.88,4.87-3.89a14.31,14.31,0,0,1,1.67.11l5.43.67a55.33,55.33,0,0,0,6.64.33q2.78,0,6.65-.33,9.09-.78,13.75-.78a58.12,58.12,0,0,1,12.19,1.11A19,19,0,0,1,205,99.06a20.34,20.34,0,0,1,4.16,12.88q0,10.44-7.16,16t-20.7,5.55H168.83a3,3,0,0,0-2.28.61,5.11,5.11,0,0,0-.5,2.82v2.21q0,14,.83,17t4.83,3a8.1,8.1,0,0,0,2.33-.34c1.63-.14,2.63-.22,3-.22,2.29,0,3.44,1.19,3.44,3.55q0,4-4.88,4l-1.56-.22-5.55-.78a54.18,54.18,0,0,0-7-.33,49.09,49.09,0,0,0-6.33.33l-6.43.89a2.67,2.67,0,0,0-.67.11h-.78q-5,0-5-3.89a3.62,3.62,0,0,1,1-2.6,3.21,3.21,0,0,1,2.44-1.06,17,17,0,0,1,3,.33,8.87,8.87,0,0,0,2.33.23Q156.73,159.12,156.73,150.81Zm10.1-50.3q-.78,1.11-.78,6.1V123q0,3,4.22,3.44h6.44a58.48,58.48,0,0,0,13.1-1.22q9.87-2.33,9.88-13,0-14.08-18-14.09Q168.38,98.18,166.83,100.51Z" transform="translate(-77 -31.5)" style="fill:#73a534"/><path d="M421.62,149l-4-10.88a4.54,4.54,0,0,0-1.39-2.22,6.48,6.48,0,0,0-2.94-.44H393.54a4.49,4.49,0,0,0-3.05.78,13.35,13.35,0,0,0-2.17,4.21L385.11,149a6.76,6.76,0,0,0-.45,2.33q0,3.56,4.33,3.55a30.89,30.89,0,0,0,3.16-.22,30.63,30.63,0,0,1,3.06-.22c3,0,4.55,1.3,4.55,3.88s-1.67,3.67-5,3.67a19.82,19.82,0,0,1-2.44-.22l-5.55-.69a43.75,43.75,0,0,0-5.11-.2q-3.89,0-5.43.18l-4.67.56A45,45,0,0,1,367,162c-2.88,0-4.33-1.22-4.33-3.67s1.41-3.88,4.22-3.88a1.82,1.82,0,0,1,1.33.44h1.45a5.14,5.14,0,0,0,4.55-2.33,28.38,28.38,0,0,0,2.22-5.24l20.64-56q1.79-4.68,7-4.68a6.56,6.56,0,0,1,6.77,4.66l19.87,55.06q1.88,5.22,3.44,6.88a5.76,5.76,0,0,0,4.44,1.66,4.51,4.51,0,0,0,1.33-.14l3.11-.3q4.21,0,4.22,3.66,0,3.88-4.22,3.89a28.56,28.56,0,0,1-3.22-.25,94.91,94.91,0,0,0-10.44-.86q-4.09,0-13.32.89c-1.55.14-2.73.22-3.55.22q-4.44,0-4.44-3.78t4.89-3.77a27.7,27.7,0,0,1,2.94.22,27.34,27.34,0,0,0,2.94.22q3.66,0,3.66-3A14.63,14.63,0,0,0,421.62,149Zm-8-22.64-10-30.64-10.21,30.64a4.34,4.34,0,0,0-.22.77c0,.67.55,1,1.66,1h17.65c.89,0,1.33-.29,1.33-.89A3.51,3.51,0,0,0,413.63,126.37Z" transform="translate(-77 -31.5)" style="fill:#a71113"/><path d="M619,117.82h35.52V101.5q0-8.32-5.66-8.32a21.44,21.44,0,0,0-2.39.22,23.16,23.16,0,0,1-2.94.22Q640,93.62,640,90c0-2.62,1.59-3.94,4.77-3.94a39.51,39.51,0,0,1,5.66.72,43,43,0,0,0,7.55.73,68.14,68.14,0,0,0,11.1-.92,34.2,34.2,0,0,1,4.22-.53q4.88,0,4.88,4,0,3.6-3.44,3.6a22.89,22.89,0,0,1-2.66-.22,23.19,23.19,0,0,0-2.67-.22q-5.65,0-5.66,8.32v44.29q0,8.33,5.55,8.33a21.1,21.1,0,0,0,2.72-.28,19.42,19.42,0,0,1,2.72-.28c2.29,0,3.44,1.19,3.44,3.55q0,4-4.88,4a28.54,28.54,0,0,1-4.33-.67,43.75,43.75,0,0,0-8.44-.77,68.17,68.17,0,0,0-10.32.66q-4.89.78-5.33.78c-3.26,0-4.88-1.31-4.88-3.94q0-3.61,3.55-3.61a25.4,25.4,0,0,1,2.66.22,23,23,0,0,0,2.67.22q4.65,0,5.55-6.1.11-.78.11-10V125.37H619V138c0,6.14,0,9.47.11,10q.89,6.11,5.55,6.11a21.1,21.1,0,0,0,2.72-.28,19.28,19.28,0,0,1,2.72-.28c2.29,0,3.44,1.19,3.44,3.55q0,4-4.89,4a46.66,46.66,0,0,1-4.77-.67,57.88,57.88,0,0,0-9.32-.89,61.14,61.14,0,0,0-10,.89l-2.67.45c-.88.14-1.37.22-1.44.22-3.4,0-5.11-1.31-5.11-3.94a3.47,3.47,0,0,1,1.06-2.51,3.35,3.35,0,0,1,2.5-1.1,23.06,23.06,0,0,1,3,.28,10.87,10.87,0,0,0,2.33.28q5.67,0,5.67-8.33V101.28q0-8.32-5.67-8.33a14.46,14.46,0,0,0-2.44.34,15.12,15.12,0,0,1-2.88.33,3.32,3.32,0,0,1-2.5-1.11A3.57,3.57,0,0,1,595.37,90c0-2.59,1.71-3.89,5.11-3.89a30.35,30.35,0,0,1,4.11.56,58,58,0,0,0,10.32.77,53.6,53.6,0,0,0,6.94-.66,51.9,51.9,0,0,1,6.82-.67c3.26,0,4.89,1.32,4.89,3.94a3.55,3.55,0,0,1-1,2.57,3.24,3.24,0,0,1-2.44,1,19.29,19.29,0,0,1-3-.28,19.52,19.52,0,0,0-2.44-.27q-5.45,0-5.55,8.32Z" transform="translate(-77 -31.5)" style="fill:#73a534"/><path d="M851.94,101.28q0-8.22-5.66-8.21a9,9,0,0,0-2.33.22,17,17,0,0,1-3,.33,3.23,3.23,0,0,1-2.44-1.05,3.66,3.66,0,0,1-1-2.61q0-3.88,4.64-3.89l1.66.11q16.59,1.11,15.49,1.11h1.1l26.66-.77q.78,0,5.76-.34c1.18-.07,2.24-.11,3.2-.11,3.84,0,5.76,1.71,5.76,5.11,0,.59-.11,2.48-.32,5.66q-.24,3.55-.24,6.55a51.28,51.28,0,0,0,.19,5.44c.24,2.15.37,3.74.37,4.77,0,2.81-1.32,4.22-3.94,4.22s-3.94-2-3.94-5.88v-5.78q0-9.31-3.89-11Q887.13,94,875.14,94a66.35,66.35,0,0,0-9.33.34Q861,95.51,861,101v11.1q0,4.44,2,5.1a10.63,10.63,0,0,0,2.63.22h4.49q6.89,0,6.89-4.77a28.25,28.25,0,0,0-.27-3.44,28.29,28.29,0,0,1-.28-3.77q0-4.44,3.94-4.44t3.94,4.77c0,.59-.24,2.89-.72,6.88a76.24,76.24,0,0,0-.61,9q0,2.22.44,7.88c.07.6.26,1.89.56,3.89a30.61,30.61,0,0,1,.33,3.88q0,4-4,4t-3.88-4.66a31.26,31.26,0,0,1,.28-3.55,33.56,33.56,0,0,0,.27-3.56q0-4.77-6.32-4.77h-5c-2.15,0-3.46.37-3.94,1.11s-.72,2.33-.72,4.77v6.89c0,1.18,0,2.77.11,4.77.07,2.44.11,4.07.11,4.88.07,3,.67,4.81,1.78,5.55q1.22.78,5.77.78h15.1q6.54,0,9-1.94c1.62-1.3,2.44-3.72,2.44-7.27,0-1.11-.06-2.76-.17-4.94s-.16-3.83-.16-4.94q0-5,3.94-5c2.77,0,4.16,1.71,4.16,5.11,0,1.33-.06,3.37-.17,6.1s-.16,4.78-.16,6.11c0,1,.05,2.57.16,4.61s.17,3.57.17,4.6q0,5.22-5.11,5.22c-.81,0-2.11-.08-3.88-.22-.89-.08-2.52-.11-4.89-.11.52,0-2.37-.08-8.65-.23s-11.73-.22-16.32-.22q-10.44,0-20.43.67a4.67,4.67,0,0,0-1,.11h-.67q-4.67,0-4.66-4c0-2.36,1.14-3.55,3.44-3.55.37,0,1.37.08,3,.22a8.93,8.93,0,0,0,2.33.34q5.65,0,5.66-8.33Z" transform="translate(-77 -31.5)" style="fill:#a71113"/><path d="M1102,144.29q0,6.51,1.34,7.73a4.43,4.43,0,0,0,2.6,1.21,70.45,70.45,0,0,0,7.27.22h9.77q7.66,0,10.21-2t2.56-8.15c0-1.1,0-2.37-.11-3.83-.15-2.85-.23-4.57-.23-5.15q0-4.81,3.89-4.82c3.11,0,4.66,1.49,4.66,4.44a16.31,16.31,0,0,1-.11,2.11l-.78,5.66a38.16,38.16,0,0,0-.33,5.11c0,1,.09,2.57.28,4.61s.28,3.57.28,4.6q0,5-5.67,5-1.11,0-5.1-.39-2.67-.2-8.22-.39h-26.08q-2.67,0-8.88.44c-.59,0-1.61.06-3,.17s-2.58.17-3.39.17q-4.66,0-4.66-4,0-3.56,3.44-3.55a16,16,0,0,1,2.66.33,16.47,16.47,0,0,0,2.67.34q5.65,0,5.66-8.33V101.28q0-8.22-5.66-8.21a9,9,0,0,0-2.33.22,17,17,0,0,1-3,.33,3.23,3.23,0,0,1-2.44-1.05,3.66,3.66,0,0,1-1-2.61q0-3.88,4.77-3.89a16.7,16.7,0,0,1,1.67.11l5.88.67a70.61,70.61,0,0,0,7.22.55,55.85,55.85,0,0,0,7.1-.55l5.11-.67a12.94,12.94,0,0,1,1.44-.11q5,0,5,3.89a3.66,3.66,0,0,1-1,2.61,3.23,3.23,0,0,1-2.44,1.05,18.24,18.24,0,0,1-3-.33,9.1,9.1,0,0,0-2.34-.22q-5.65,0-5.66,8.16Z" transform="translate(-77 -31.5)" style="fill:#73a534"/><path d="M1339.23,105.28q0-8.22-5.66-8.21a9.06,9.06,0,0,0-2.33.22,16.81,16.81,0,0,1-3,.33,3.25,3.25,0,0,1-2.45-1.05,3.7,3.7,0,0,1-1-2.61q0-3.88,4.89-3.89a13.53,13.53,0,0,1,1.55.11l5.89.78a51.32,51.32,0,0,0,6.88.44,56.73,56.73,0,0,0,7.55-.55l5-.67a13.53,13.53,0,0,1,1.55-.11q4.89,0,4.89,3.89a3.66,3.66,0,0,1-1,2.61,3.25,3.25,0,0,1-2.44,1.05,18.46,18.46,0,0,1-3-.33,9.06,9.06,0,0,0-2.33-.22q-5.65,0-5.66,8.21v44.51q0,8.33,5.66,8.33a16,16,0,0,0,2.33-.23,22.37,22.37,0,0,1,3-.33c2.29,0,3.44,1.19,3.44,3.55q0,4-4.89,4h-.77a3,3,0,0,0-.78-.11l-5.77-.89a39.74,39.74,0,0,0-6.11-.44,56,56,0,0,0-8.32.55l-5.11.78a3.9,3.9,0,0,0-.77.11h-.89q-4.78,0-4.78-4c0-2.36,1.15-3.55,3.45-3.55.36,0,1.36.08,3,.22a9,9,0,0,0,2.33.34q5.67,0,5.66-8.33Z" transform="translate(-77 -31.5)" style="fill:#a71113"/></svg>